<mxfile host="app.diagrams.net" modified="2023-07-04T08:08:34.328Z" agent="Mozilla/5.0 (Windows NT 10.0; Win64; x64) AppleWebKit/537.36 (KHTML, like Gecko) Chrome/114.0.0.0 Safari/537.36 Edg/114.0.1823.67" etag="HWjc4UkvocDKcnmTBXRG" version="21.5.2" type="github">
  <diagram name="第 1 页" id="Nqut_kigREsXALoGMJRx">
    <mxGraphModel dx="2019" dy="1155" grid="1" gridSize="10" guides="1" tooltips="1" connect="1" arrows="1" fold="1" page="1" pageScale="1" pageWidth="827" pageHeight="1169" math="0" shadow="0">
      <root>
        <mxCell id="0" />
        <mxCell id="1" parent="0" />
        <mxCell id="xPv__9pbOXYrqwL2-PST-19" value="" style="ellipse;shape=cloud;whiteSpace=wrap;html=1;dashed=1;dashPattern=1 1;fillColor=none;" vertex="1" parent="1">
          <mxGeometry x="280" y="40" width="280" height="240" as="geometry" />
        </mxCell>
        <mxCell id="xPv__9pbOXYrqwL2-PST-4" value="" style="image;aspect=fixed;perimeter=ellipsePerimeter;html=1;align=center;shadow=0;dashed=0;spacingTop=3;image=img/lib/active_directory/generic_server.svg;" vertex="1" parent="1">
          <mxGeometry x="160" y="410" width="80" height="142.86" as="geometry" />
        </mxCell>
        <mxCell id="xPv__9pbOXYrqwL2-PST-5" value="" style="image;aspect=fixed;perimeter=ellipsePerimeter;html=1;align=center;shadow=0;dashed=0;spacingTop=3;image=img/lib/active_directory/generic_server.svg;" vertex="1" parent="1">
          <mxGeometry x="560" y="410" width="80" height="142.86" as="geometry" />
        </mxCell>
        <mxCell id="xPv__9pbOXYrqwL2-PST-6" value="&lt;font style=&quot;font-size: 24px;&quot;&gt;source host&lt;/font&gt;" style="text;html=1;strokeColor=none;fillColor=none;align=center;verticalAlign=middle;whiteSpace=wrap;rounded=0;" vertex="1" parent="1">
          <mxGeometry x="100" y="560" width="200" height="40" as="geometry" />
        </mxCell>
        <mxCell id="xPv__9pbOXYrqwL2-PST-8" value="&lt;font style=&quot;font-size: 24px;&quot;&gt;destination host&lt;/font&gt;" style="text;html=1;strokeColor=none;fillColor=none;align=center;verticalAlign=middle;whiteSpace=wrap;rounded=0;" vertex="1" parent="1">
          <mxGeometry x="500" y="560" width="200" height="40" as="geometry" />
        </mxCell>
        <mxCell id="xPv__9pbOXYrqwL2-PST-10" value="" style="image;points=[];aspect=fixed;html=1;align=center;shadow=0;dashed=0;image=img/lib/allied_telesis/computer_and_terminals/Personal_Computer_with_Server.svg;" vertex="1" parent="1">
          <mxGeometry x="120" y="360" width="60" height="60" as="geometry" />
        </mxCell>
        <mxCell id="xPv__9pbOXYrqwL2-PST-11" value="" style="image;points=[];aspect=fixed;html=1;align=center;shadow=0;dashed=0;image=img/lib/allied_telesis/computer_and_terminals/Personal_Computer_with_Server.svg;" vertex="1" parent="1">
          <mxGeometry x="520" y="360" width="60" height="60" as="geometry" />
        </mxCell>
        <mxCell id="xPv__9pbOXYrqwL2-PST-12" value="" style="image;html=1;image=img/lib/clip_art/networking/Print_Server_Wireless_128x128.png" vertex="1" parent="1">
          <mxGeometry x="370" y="370" width="60" height="60" as="geometry" />
        </mxCell>
        <mxCell id="xPv__9pbOXYrqwL2-PST-13" value="" style="endArrow=none;html=1;rounded=0;entryX=0;entryY=1;entryDx=0;entryDy=0;" edge="1" parent="1" target="xPv__9pbOXYrqwL2-PST-12">
          <mxGeometry width="50" height="50" relative="1" as="geometry">
            <mxPoint x="250" y="480" as="sourcePoint" />
            <mxPoint x="360" y="440" as="targetPoint" />
          </mxGeometry>
        </mxCell>
        <mxCell id="xPv__9pbOXYrqwL2-PST-14" value="" style="endArrow=none;html=1;rounded=0;exitX=1;exitY=1;exitDx=0;exitDy=0;" edge="1" parent="1" source="xPv__9pbOXYrqwL2-PST-12">
          <mxGeometry width="50" height="50" relative="1" as="geometry">
            <mxPoint x="410" y="520" as="sourcePoint" />
            <mxPoint x="550" y="481" as="targetPoint" />
          </mxGeometry>
        </mxCell>
        <mxCell id="xPv__9pbOXYrqwL2-PST-15" value="" style="endArrow=none;html=1;rounded=0;entryX=0.5;entryY=0;entryDx=0;entryDy=0;" edge="1" parent="1">
          <mxGeometry width="50" height="50" relative="1" as="geometry">
            <mxPoint x="400" y="280" as="sourcePoint" />
            <mxPoint x="400" y="390" as="targetPoint" />
          </mxGeometry>
        </mxCell>
        <mxCell id="xPv__9pbOXYrqwL2-PST-16" value="&lt;font style=&quot;font-size: 24px;&quot;&gt;VM&lt;/font&gt;" style="text;html=1;strokeColor=none;fillColor=none;align=center;verticalAlign=middle;whiteSpace=wrap;rounded=0;" vertex="1" parent="1">
          <mxGeometry x="120" y="320" width="60" height="40" as="geometry" />
        </mxCell>
        <mxCell id="xPv__9pbOXYrqwL2-PST-17" value="&lt;font style=&quot;font-size: 24px;&quot;&gt;VM&lt;/font&gt;" style="text;html=1;strokeColor=none;fillColor=none;align=center;verticalAlign=middle;whiteSpace=wrap;rounded=0;" vertex="1" parent="1">
          <mxGeometry x="520" y="320" width="60" height="40" as="geometry" />
        </mxCell>
        <mxCell id="xPv__9pbOXYrqwL2-PST-18" value="" style="sketch=0;aspect=fixed;pointerEvents=1;shadow=0;dashed=0;html=1;strokeColor=none;labelPosition=center;verticalLabelPosition=bottom;verticalAlign=top;align=center;fillColor=#00188D;shape=mxgraph.mscae.enterprise.database_server" vertex="1" parent="1">
          <mxGeometry x="360" y="170" width="35.6" height="46.84" as="geometry" />
        </mxCell>
        <mxCell id="xPv__9pbOXYrqwL2-PST-20" value="" style="curved=1;endArrow=classic;html=1;rounded=0;dashed=1;" edge="1" parent="1">
          <mxGeometry width="50" height="50" relative="1" as="geometry">
            <mxPoint x="200" y="375" as="sourcePoint" />
            <mxPoint x="500" y="375" as="targetPoint" />
            <Array as="points">
              <mxPoint x="350" y="305" />
            </Array>
          </mxGeometry>
        </mxCell>
        <mxCell id="xPv__9pbOXYrqwL2-PST-21" value="" style="sketch=0;aspect=fixed;pointerEvents=1;shadow=0;dashed=0;html=1;strokeColor=none;labelPosition=center;verticalLabelPosition=bottom;verticalAlign=top;align=center;fillColor=#00188D;shape=mxgraph.mscae.enterprise.database_server" vertex="1" parent="1">
          <mxGeometry x="360" y="100" width="38" height="50" as="geometry" />
        </mxCell>
        <mxCell id="xPv__9pbOXYrqwL2-PST-22" value="&lt;font style=&quot;font-size: 18px;&quot;&gt;VM migration&lt;/font&gt;" style="text;html=1;strokeColor=none;fillColor=none;align=center;verticalAlign=middle;whiteSpace=wrap;rounded=0;" vertex="1" parent="1">
          <mxGeometry x="280" y="300" width="120" height="40" as="geometry" />
        </mxCell>
        <mxCell id="xPv__9pbOXYrqwL2-PST-24" value="" style="curved=1;endArrow=classic;html=1;rounded=0;entryX=0;entryY=0.5;entryDx=0;entryDy=0;entryPerimeter=0;dashed=1;" edge="1" parent="1" target="xPv__9pbOXYrqwL2-PST-21">
          <mxGeometry width="50" height="50" relative="1" as="geometry">
            <mxPoint x="190" y="370" as="sourcePoint" />
            <mxPoint x="240" y="320" as="targetPoint" />
            <Array as="points">
              <mxPoint x="220" y="220" />
            </Array>
          </mxGeometry>
        </mxCell>
        <mxCell id="xPv__9pbOXYrqwL2-PST-25" value="" style="curved=1;endArrow=classic;html=1;rounded=0;entryX=0.25;entryY=1;entryDx=0;entryDy=0;dashed=1;exitX=0.65;exitY=-0.025;exitDx=0;exitDy=0;exitPerimeter=0;" edge="1" parent="1" source="xPv__9pbOXYrqwL2-PST-17" target="xPv__9pbOXYrqwL2-PST-27">
          <mxGeometry width="50" height="50" relative="1" as="geometry">
            <mxPoint x="520" y="360" as="sourcePoint" />
            <mxPoint x="440" y="280" as="targetPoint" />
            <Array as="points">
              <mxPoint x="540" y="240" />
            </Array>
          </mxGeometry>
        </mxCell>
        <mxCell id="xPv__9pbOXYrqwL2-PST-26" value="&lt;font style=&quot;font-size: 18px;&quot;&gt;backup for source&#39;s VM state&lt;/font&gt;" style="text;html=1;strokeColor=none;fillColor=none;align=left;verticalAlign=middle;whiteSpace=wrap;rounded=0;" vertex="1" parent="1">
          <mxGeometry x="400" y="100" width="160" height="50" as="geometry" />
        </mxCell>
        <mxCell id="xPv__9pbOXYrqwL2-PST-27" value="&lt;font style=&quot;font-size: 18px;&quot;&gt;backup for destination&#39;s VM state&lt;/font&gt;" style="text;html=1;strokeColor=none;fillColor=none;align=left;verticalAlign=middle;whiteSpace=wrap;rounded=0;" vertex="1" parent="1">
          <mxGeometry x="400" y="170" width="200" height="50" as="geometry" />
        </mxCell>
      </root>
    </mxGraphModel>
  </diagram>
</mxfile>
